# xmcd CD database file
#
# Track frame offsets:
#	150
#	21105
#	38855
#	59782
#
# Disc length: 1032 seconds
#
# Revision: 0
# Processed by: cddbd v1.5.1PL0 Copyright (c) Steve Scherf et al.
# Submitted via: CDex 1.51
#
DISCID=32040604
DTITLE=melody. - Believe me (Japanese Version)
DYEAR=2004
DGENRE=JPop
TTITLE0=Believe me (Japanese Version)
TTITLE1=So into You (Japanese Version)
TTITLE2=Believe me (Japanese Version) -Instrumental-
TTITLE3=So into You (Japanese Version) -Instrumental-
EXTD=YEAR: 2004
EXTT0=
EXTT1=
EXTT2=
EXTT3=
PLAYORDER=
